HIERARCHY
ROOT joint_Root
{
	OFFSET 0.0 0.0 0.0
	CHANNELS 6 Xposition Yposition Zposition Zrotation Xrotation Yrotation 
	JOINT Hips
	{
		OFFSET -0.726466 93.3139 -2.00062
		CHANNELS 6 Xposition Yposition Zposition Zrotation Xrotation Yrotation 
		JOINT Spine
		{
			OFFSET 15.7357 0.0 0.0
			CHANNELS 6 Xposition Yposition Zposition Zrotation Xrotation Yrotation 
			JOINT Chest
			{
				OFFSET 8.98455 -0.406207 0.0
				CHANNELS 6 Xposition Yposition Zposition Zrotation Xrotation Yrotation 
				JOINT Neck
				{
					OFFSET 16.3773 0.0 0.0
					CHANNELS 6 Xposition Yposition Zposition Zrotation Xrotation Yrotation 
					JOINT Head
					{
						OFFSET 6.45672 0.0 0.0
						CHANNELS 6 Xposition Yposition Zposition Zrotation Xrotation Yrotation 
						End Site
						{
							OFFSET 0.0 0.0 0.0
						}
					}
				}
				JOINT Shoulder_L
				{
					OFFSET 12.9942 -0.242716 4.98039
					CHANNELS 6 Xposition Yposition Zposition Zrotation Xrotation Yrotation 
					JOINT UpperArm_L
					{
						OFFSET 5.34809 0.0 0.0
						CHANNELS 6 Xposition Yposition Zposition Zrotation Xrotation Yrotation 
						JOINT LowerArm_L
						{
							OFFSET 24.3286 1.87007e-05 0.0
							CHANNELS 6 Xposition Yposition Zposition Zrotation Xrotation Yrotation 
							JOINT Hand_L
							{
								OFFSET 22.2916 0.0 0.0
								CHANNELS 6 Xposition Yposition Zposition Zrotation Xrotation Yrotation 
								End Site
								{
									OFFSET 0.0 0.0 0.0
								}
							}
						}
					}
				}
				JOINT Shoulder_R
				{
					OFFSET 12.9945 -0.242716 -4.98039
					CHANNELS 6 Xposition Yposition Zposition Zrotation Xrotation Yrotation 
					JOINT UpperArm_R
					{
						OFFSET -5.34813 0.0 0.0
						CHANNELS 6 Xposition Yposition Zposition Zrotation Xrotation Yrotation 
						JOINT LowerArm_R
						{
							OFFSET -24.3289 0.000322201 0.0
							CHANNELS 6 Xposition Yposition Zposition Zrotation Xrotation Yrotation 
							JOINT Hand_R
							{
								OFFSET -22.2915 -0.000108084 0.0
								CHANNELS 6 Xposition Yposition Zposition Zrotation Xrotation Yrotation 
								End Site
								{
									OFFSET 0.0 0.0 0.0
								}
							}
						}
					}
				}
			}
		}
		JOINT UpperLeg_L
		{
			OFFSET -2.19248 -6.46944 0.0
			CHANNELS 6 Xposition Yposition Zposition Zrotation Xrotation Yrotation 
			JOINT LowerLeg_L
			{
				OFFSET 39.0811 0.0 -1.23785e-05
				CHANNELS 6 Xposition Yposition Zposition Zrotation Xrotation Yrotation 
				JOINT Foot_L
				{
					OFFSET 40.9854 0.0 -1.26872e-05
					CHANNELS 6 Xposition Yposition Zposition Zrotation Xrotation Yrotation 
					JOINT Toes_L
					{
						OFFSET 11.7543 0.0 0.0
						CHANNELS 6 Xposition Yposition Zposition Zrotation Xrotation Yrotation 
						End Site
						{
							OFFSET 0.0 0.0 0.0
						}
					}
				}
			}
		}
		JOINT UpperLeg_R
		{
			OFFSET -2.19251 6.46944 0.0
			CHANNELS 6 Xposition Yposition Zposition Zrotation Xrotation Yrotation 
			JOINT LowerLeg_R
			{
				OFFSET -39.0811 -0.00228153 -0.0401928
				CHANNELS 6 Xposition Yposition Zposition Zrotation Xrotation Yrotation 
				JOINT Foot_R
				{
					OFFSET -40.9854 0.0 0.0
					CHANNELS 6 Xposition Yposition Zposition Zrotation Xrotation Yrotation 
					JOINT Toes_R
					{
						OFFSET -11.7543 0.0 0.0
						CHANNELS 6 Xposition Yposition Zposition Zrotation Xrotation Yrotation 
						End Site
						{
							OFFSET 0.0 0.0 0.0
						}
					}
				}
			}
		}
	}
}
MOTION
Frames:	5
Frame Time:	0.0333333
0.000000 0.000000 0.000000 0.000000 0.000000 -0.000000 -1.311030 92.739800 0.304958 88.972100 -2.377000 2.721200 15.735700 0.000005 -0.000001 91.159000 86.148700 -90.955400 8.984550 -0.406207 -0.000000 -0.065246 0.141857 0.406949 16.377300 -0.000001 -0.000001 3.880540 -2.129190 2.861430 6.456720 -0.000001 -0.000000 8.098280 -1.068200 -4.116310 12.994200 -0.242716 4.980390 -90.850400 2.763710 -72.888800 5.348090 -0.000007 -0.000001 -67.992900 34.873200 -12.293000 24.328600 0.000019 0.000005 5.242060 11.588600 -24.546800 22.291600 -0.000001 0.000005 0.456360 5.459070 -4.965860 12.994500 -0.242716 -4.980390 87.517600 8.107030 -72.911900 -5.348130 -0.000001 -0.000004 -64.102800 42.767900 -11.335500 -24.328900 0.000322 -0.000009 3.178450 8.975880 -19.598000 -22.291500 -0.000108 -0.000004 6.262380 5.360100 -1.682590 -2.192480 -6.469440 -0.000000 -176.217000 -7.389100 -0.842113 39.081100 -0.000007 -0.000012 -0.068615 0.212359 17.906000 40.985400 -0.000006 -0.000013 -0.540123 3.963900 -64.464200 11.754300 -0.000000 0.000003 -0.000002 -0.000027 -16.578600 -2.192510 6.469440 -0.000001 179.674000 9.747550 -179.267000 -39.081100 -0.002282 -0.040193 -0.058337 0.222020 15.522700 -40.985400 0.000008 0.000006 1.721100 7.127800 -63.923800 -11.754300 -0.000006 -0.000006 -0.005678 -0.067881 -19.335500
0.000000 0.000000 0.000000 0.000000 0.000000 -0.000000 -1.311890 92.751900 0.273699 89.016600 -2.315620 2.686250 15.735700 0.000005 -0.000001 91.681700 86.188100 -91.422800 8.984550 -0.406207 -0.000000 -0.145910 0.205814 0.517896 16.377300 -0.000001 -0.000001 3.821930 -1.955950 2.911430 6.456720 -0.000001 -0.000000 8.142700 -0.809033 -4.097090 12.994200 -0.242716 4.980390 -90.964300 3.110060 -72.763600 5.348090 -0.000007 -0.000001 -67.172400 31.853600 -12.617700 24.328600 0.000019 0.000005 5.570560 10.873100 -27.341400 22.291600 -0.000001 0.000005 -1.497140 5.447720 -4.558010 12.994500 -0.242716 -4.980390 87.529600 8.032480 -72.841500 -5.348130 -0.000001 -0.000004 -64.323200 42.359700 -11.128800 -24.328900 0.000322 -0.000009 3.193260 9.058840 -19.517300 -22.291500 -0.000108 -0.000004 6.331730 5.357800 -1.612690 -2.192480 -6.469440 -0.000000 -176.279000 -7.304740 -0.844217 39.081100 -0.000007 -0.000012 -0.066564 0.207574 17.779900 40.985400 -0.000006 -0.000013 -0.548251 3.930270 -64.377700 11.754300 -0.000000 0.000003 -0.000002 -0.000027 -16.578500 -2.192510 6.469440 -0.000001 179.638000 9.801100 -179.293000 -39.081100 -0.002282 -0.040193 -0.057702 0.220501 15.471400 -40.985400 0.000008 0.000006 1.720700 7.130540 -63.883800 -11.754300 -0.000006 -0.000006 -0.005591 -0.067077 -19.302700
0.000000 0.000000 0.000000 0.000000 0.000000 -0.000000 -1.328950 92.752000 0.245511 89.052000 -2.216840 2.687970 15.735700 0.000005 -0.000001 92.144500 86.200400 -91.814700 8.984550 -0.406207 -0.000000 -0.172786 0.261456 0.659719 16.377300 -0.000001 -0.000001 3.704380 -1.778300 2.929240 6.456720 -0.000001 -0.000000 8.022890 -0.656201 -4.068520 12.994200 -0.242716 4.980390 -91.097600 3.480780 -72.487000 5.348090 -0.000007 -0.000001 -65.447100 28.462300 -13.738100 24.328600 0.000019 0.000005 5.910340 9.629520 -31.752400 22.291600 -0.000001 0.000005 -2.049320 5.449150 -4.608950 12.994500 -0.242716 -4.980390 87.566500 7.925280 -72.869500 -5.348130 -0.000001 -0.000004 -64.537700 42.036000 -10.953900 -24.328900 0.000322 -0.000009 3.140170 8.913320 -19.504100 -22.291500 -0.000108 -0.000004 6.385040 5.358010 -1.619120 -2.192480 -6.469440 -0.000000 -176.312000 -7.244620 -0.871899 39.081100 -0.000007 -0.000012 -0.065464 0.204247 17.771400 40.985400 -0.000006 -0.000013 -0.547899 3.968590 -64.346100 11.754300 -0.000000 0.000003 -0.000002 -0.000025 -16.578500 -2.192510 6.469440 -0.000001 179.625000 9.842430 -179.335000 -39.081100 -0.002282 -0.040193 -0.057104 0.217495 15.528600 -40.985400 0.000008 0.000006 1.726170 7.040690 -63.900300 -11.754300 -0.000006 -0.000006 -0.005797 -0.068984 -19.380500
0.000000 0.000000 0.000000 0.000000 0.000000 -0.000000 -1.369690 92.762800 0.178694 89.110600 -1.894620 2.665660 15.735700 0.000005 -0.000001 92.661400 86.217500 -92.287300 8.984550 -0.406207 -0.000000 -0.210158 0.325143 0.748417 16.377300 -0.000001 -0.000001 3.580640 -1.809960 2.973750 6.456720 -0.000001 -0.000000 7.813200 -0.746455 -4.006330 12.994200 -0.242716 4.980390 -91.152600 3.622890 -72.339400 5.348090 -0.000007 -0.000001 -63.390000 24.501500 -15.500200 24.328600 0.000019 0.000005 6.546610 8.488320 -37.863900 22.291600 -0.000001 0.000005 -0.545230 5.472200 -5.451030 12.994500 -0.242716 -4.980390 87.567900 7.898600 -72.824500 -5.348130 -0.000001 -0.000004 -64.606700 42.059200 -10.793500 -24.328900 0.000322 -0.000009 3.205370 9.052990 -19.597400 -22.291500 -0.000108 -0.000004 6.359630 5.357440 -1.601900 -2.192480 -6.469440 -0.000000 -176.339000 -7.156050 -0.955734 39.081100 -0.000007 -0.000012 -0.065564 0.205485 17.696200 40.985400 -0.000006 -0.000013 -0.542908 4.188580 -64.222700 11.754300 -0.000000 0.000003 -0.000003 -0.000038 -16.579000 -2.192510 6.469440 -0.000001 179.615000 9.944030 -179.374000 -39.081100 -0.002282 -0.040193 -0.057529 0.219278 15.511400 -40.985400 0.000008 0.000006 1.724410 6.843820 -63.871300 -11.754300 -0.000006 -0.000006 -0.005726 -0.068328 -19.353700
0.000000 0.000000 0.000000 0.000000 0.000000 -0.000000 -1.425290 92.764000 0.123598 89.149300 -1.474060 2.719050 15.735700 0.000005 -0.000001 92.876000 86.217900 -92.439500 8.984550 -0.406207 -0.000000 -0.212506 0.349055 0.873088 16.377300 -0.000001 -0.000001 3.494450 -1.900980 2.907430 6.456720 -0.000001 -0.000000 7.459540 -1.070170 -3.926820 12.994200 -0.242716 4.980390 -91.146100 3.563430 -72.157800 5.348090 -0.000007 -0.000001 -61.276400 20.064200 -17.855300 24.328600 0.000019 0.000005 7.231070 7.168340 -45.478000 22.291600 -0.000001 0.000005 2.003130 5.492950 -6.249780 12.994500 -0.242716 -4.980390 87.581800 7.850230 -72.819200 -5.348130 -0.000001 -0.000004 -64.619500 42.181800 -10.688600 -24.328900 0.000322 -0.000009 3.199190 9.024770 -19.618500 -22.291500 -0.000108 -0.000004 6.376220 5.358460 -1.632890 -2.192480 -6.469440 -0.000000 -176.319000 -6.949510 -1.007240 39.081100 -0.000007 -0.000012 -0.067009 0.209837 17.710100 40.985400 -0.000006 -0.000013 -0.552461 4.435300 -64.148900 11.754300 -0.000000 0.000003 -0.000003 -0.000038 -16.579000 -2.192510 6.469440 -0.000001 179.619000 10.214300 -179.345000 -39.081100 -0.002282 -0.040193 -0.057479 0.218552 15.548400 -40.985400 0.000008 0.000006 1.748750 6.661410 -63.887800 -11.754300 -0.000006 -0.000006 -0.005540 -0.066602 -19.283400
